<svg width="1024" height="1024" viewBox="0 0 1024 1024" fill="none"
  xmlns="http://www.w3.org/2000/svg">

  <defs>
    <!-- Background Gradient (macOS safe area: 102px inset → 820×820) -->
    <linearGradient id="bgGradient" x1="190" y1="153" x2="866" y2="902" gradientUnits="userSpaceOnUse">
      <stop offset="0%" stop-color="#0A84FF"/>
      <stop offset="55%" stop-color="#64D2FF"/>
      <stop offset="100%" stop-color="#BF5AF2"/>
    </linearGradient>

    <!-- Subtle Gloss Highlight -->
    <linearGradient id="glossGradient" x1="227" y1="171" x2="702" y2="721" gradientUnits="userSpaceOnUse">
      <stop offset="0%" stop-color="white" stop-opacity="0.35"/>
      <stop offset="40%" stop-color="white" stop-opacity="0.12"/>
      <stop offset="100%" stop-color="white" stop-opacity="0"/>
    </linearGradient>

    <!-- N Fill Gradient -->
    <linearGradient id="nGradient" x1="336" y1="263" x2="721" y2="794" gradientUnits="userSpaceOnUse">
      <stop offset="0%" stop-color="white" stop-opacity="0.95"/>
      <stop offset="60%" stop-color="white" stop-opacity="0.85"/>
      <stop offset="100%" stop-color="white" stop-opacity="0.75"/>
    </linearGradient>

    <!-- Shadow -->
    <filter id="softShadow" x="-20%" y="-20%" width="140%" height="140%">
      <feDropShadow dx="0" dy="24" stdDeviation="28" flood-color="#000000" flood-opacity="0.35"/>
    </filter>

    <!-- Inner shadow for depth -->
    <filter id="innerShadow" x="-30%" y="-30%" width="160%" height="160%">
      <feOffset dx="0" dy="10"/>
      <feGaussianBlur stdDeviation="18" result="blur"/>
      <feComposite in="SourceGraphic" in2="blur" operator="out" result="inverse"/>
      <feColorMatrix in="inverse" type="matrix"
        values="0 0 0 0 0
                0 0 0 0 0
                0 0 0 0 0
                0 0 0 0.35 0"/>
      <feComposite in2="SourceGraphic" operator="over"/>
    </filter>

    <!-- macOS icon shape: 102px safe inset, 820×820, ~22% corner radius (180px) -->
    <clipPath id="roundedClip">
      <rect x="102" y="102" width="820" height="820" rx="180" ry="180"/>
    </clipPath>
  </defs>

  <!-- Background (Apple HIG: square with rounded corners, 102px safe area at 1024pt) -->
  <g clip-path="url(#roundedClip)">
    <rect x="102" y="102" width="820" height="820" rx="180" ry="180" fill="url(#bgGradient)"/>

    <!-- Subtle glossy highlight + bottom darkening (scaled to safe area) -->
    <g transform="translate(102,102) scale(0.9152) translate(-64,-64)">
      <path d="M64 180C64 120 120 64 180 64H780C880 64 960 144 960 244V360C720 240 460 240 64 460V180Z"
        fill="url(#glossGradient)" opacity="0.9"/>
      <path d="M64 760C260 920 540 980 960 860V960H64V760Z"
        fill="#000000" opacity="0.10"/>
    </g>
  </g>

  <!-- Centered "N" (scaled to safe area, then 80% size for smaller letter) -->
  <g transform="translate(102,102) scale(0.9152) translate(448,448) scale(0.8) translate(-448,-448) translate(-64,-64) translate(-32,-3)" filter="url(#softShadow)">

    <path
      d="M320 760V270C320 246 340 226 364 226H410C426 226 440 234 450 248L640 560V270C640 246 660 226 684 226H724C748 226 768 246 768 270V760C768 784 748 804 724 804H678C662 804 648 796 638 782L448 470V760C448 784 428 804 404 804H364C340 804 320 784 320 760Z"
      fill="url(#nGradient)"
      filter="url(#innerShadow)"
    />

    <!-- Subtle edge highlight on N -->
    <path
      d="M332 748V282C332 264 346 250 364 250H404C416 250 426 256 434 266L646 600V282C646 264 660 250 678 250H718C736 250 750 264 750 282V748C750 766 736 780 718 780H688C676 780 666 774 658 764L446 430V748C446 766 432 780 414 780H364C346 780 332 766 332 748Z"
      fill="white"
      opacity="0.10"
    />

  </g>

</svg>
